<svg xmlns="http://www.w3.org/2000/svg" viewBox="0 0 2143 450"><defs><style>.cls-1,.cls-4{fill:#62c557;}.cls-2,.cls-3,.cls-5{fill:#fff;}.cls-3{font-size:173.58px;font-family:Montserrat-ExtraBold, Montserrat;font-weight:800;letter-spacing:-0.02em;}.cls-4{letter-spacing:-0.03em;}.cls-5{font-size:72px;font-family:Helvetica-Bold, Helvetica;font-weight:700;}.cls-6{fill:none;stroke:#fff;stroke-miterlimit:10;stroke-width:2px;}</style></defs><g id="Layer_2" data-name="Layer 2"><g id="Layer_1-2" data-name="Layer 1"><path class="cls-1" d="M20.28,9.1h732a0,0,0,0,1,0,0v434a0,0,0,0,1,0,0H18.83A12.51,12.51,0,0,1,6.32,430.59V23.06a14,14,0,0,1,14-14Z"/><path class="cls-2" d="M361.9,47.18H77.39A35.56,35.56,0,0,0,41.82,82.75V367.26a35.56,35.56,0,0,0,35.57,35.56H326.33V349.17a20.74,20.74,0,0,1-3.55.3H116.51a21.33,21.33,0,0,1-21.34-21.34V121.87a21.33,21.33,0,0,1,21.34-21.34H322.78a21.33,21.33,0,0,1,21.33,21.34V328.13a20.86,20.86,0,0,1-.3,3.56h53.65V82.75A35.56,35.56,0,0,0,361.9,47.18Z"/><path class="cls-2" d="M344.11,349.47h53.35a0,0,0,0,1,0,0v23.35a30,30,0,0,1-30,30H344.11a0,0,0,0,1,0,0V349.47A0,0,0,0,1,344.11,349.47Z"/><path class="cls-2" d="M539,47.18H415.24v53.35H539A124.48,124.48,0,0,1,663.48,225h0A124.48,124.48,0,0,1,539,349.47H415.24v53.35H539A177.82,177.82,0,0,0,716.82,225h0A177.82,177.82,0,0,0,539,47.18Z"/><text class="cls-3" transform="translate(793.78 235.96)">QUICK <tspan class="cls-4" x="625.23" y="0">DESIGN</tspan></text><text class="cls-5" transform="translate(1673.87 343.83)">BY VEDANT</text><line class="cls-6" x1="1629.9" y1="314.42" x2="799.9" y2="314.42"/><line class="cls-6" x1="1629.9" y1="323.42" x2="799.9" y2="323.42"/><path class="cls-1" d="M2112.59,10A20.44,20.44,0,0,1,2133,30.42V419.59A20.44,20.44,0,0,1,2112.59,440H30.42A20.44,20.44,0,0,1,10,419.59V30.42A20.44,20.44,0,0,1,30.42,10H2112.59m0-10H30.42A30.42,30.42,0,0,0,0,30.42V419.59A30.42,30.42,0,0,0,30.42,450H2112.59A30.42,30.42,0,0,0,2143,419.59V30.42A30.42,30.42,0,0,0,2112.59,0Z"/></g></g></svg>